# xmcd CD database file
#
# Track frame offsets:
#	182
#	11430
#	24580
#	39827
#	54767
#	69477
#	84187
#	99802
#	114040
#	129987
#	143245
#	157402
#	171645
#	185537
#	198592
#	211760
#	225562
#	239352
#	253060
#	266705
#	281162
#
# Disc length: 3943 seconds
#
# Revision: 0
# Processed by: cddbd v1.5.1PL0 Copyright (c) Steve Scherf et al.
# Submitted via: CDex 1.50Beta7
#
DISCID=1c0f6515
DTITLE=Jelly Roll MORTON - Complete Edition Volume 5 - 1928-1929
DYEAR=1929
DGENRE=Jazz
TTITLE0=Georgia Swing (JRM's Red Hot Peppers, New York City, 11 June 1928)
TTITLE1=Kansas City Stomps (JRM's Red Hot Peppers, New York City, 11 June 1928)
TTITLE2=Shoe Shiner's Drag (JRM's Red Hot Peppers, New York City, 11 June 1928)
TTITLE3=Boogaboo (JRM's Red Hot Peppers, New York City, 11 June 1928)
TTITLE4=Shreveport Stomp (master take) (JRM's Red Hot Peppers, New York City, 11 June 1928)
TTITLE5=Shreveport Stomp (JRM's Red Hot Peppers, New York City, 11 June 1928)
TTITLE6=Mournful Serenade (JRM's Red Hot Peppers, New York City, 11 June 1928)
TTITLE7=Red Hot Pepper (JRM and his Orchestra, New York City, 6 Dec. 1928)
TTITLE8=Deep Creek (JRM and his Orchestra, New York City, 6 Dec. 1928	)
TTITLE9=Pep (JRM - Piano Solo, Camden, 8 July 1929)
TTITLE10=Seattle Hunch (master take) (JRM - Piano Solo, Camden, 8 July 1929)
TTITLE11=Seattle Hunch (JRM - Piano Solo, Camden, 8 July 1929)
TTITLE12=Frances (JRM - Piano Solo, Camden, 8 July 1929)
TTITLE13=Freakish (JRM - Piano Solo, Camden, 8 July 1929)
TTITLE14=Freakish (master take) (JRM - Piano Solo, Camden, 8 July 1929)
TTITLE15=Burnin' The Iceberg (JRM and his Orchestra, Camden, 9 July 1929)
TTITLE16=Burnin' The Iceberg (master take) (JRM and his Orchestra, Camden, 9 July 1929)
TTITLE17=Courthouse Bump (JRM and his Orchestra, Camden, 9 July 1929)
TTITLE18=Courthouse Bump (master take) (JRM and his Orchestra, Camden, 9 July 1929)
TTITLE19=Pretty Lil (JRM and his Orchestra, Camden, 9 July 1929)
TTITLE20=Pretty Lil (master take) (JRM and his Orchestra, Camden, 9 July 1929)
EXTD=YEAR: 1929
EXTT0=
EXTT1=
EXTT2=
EXTT3=
EXTT4=
EXTT5=
EXTT6=
EXTT7=
EXTT8=
EXTT9=
EXTT10=
EXTT11=
EXTT12=
EXTT13=
EXTT14=
EXTT15=
EXTT16=
EXTT17=
EXTT18=
EXTT19=
EXTT20=
PLAYORDER=
